<svg width="102" height="102" viewBox="0 0 102 102" fill="none" xmlns="http://www.w3.org/2000/svg">
<path d="M51 8.5C27.5188 8.5 8.50001 27.5187 8.50001 51C8.49519 59.9219 11.3 68.6188 16.5164 75.8569C21.7329 83.0949 29.0961 88.5066 37.5615 91.324C39.6865 91.6938 40.4813 90.4187 40.4813 89.301C40.4813 88.2937 40.426 84.949 40.426 81.3875C29.75 83.3552 26.9875 78.7865 26.1375 76.3938C25.6573 75.1698 23.5875 71.4 21.7813 70.3885C20.2938 69.5938 18.1688 67.626 21.726 67.575C25.075 67.5197 27.4635 70.6562 28.2625 71.9312C32.0875 78.3572 38.199 76.551 40.6385 75.4375C41.0125 72.675 42.126 70.8178 43.35 69.7553C33.8938 68.6928 24.0125 65.025 24.0125 48.7688C24.0125 44.1448 25.6573 40.324 28.3688 37.3447C27.9438 36.2822 26.4563 31.926 28.7938 26.0823C28.7938 26.0823 32.351 24.9688 40.4813 30.4428C43.941 29.4825 47.5157 28.9992 51.1063 29.0062C54.7188 29.0062 58.3313 29.4823 61.7313 30.4385C69.8572 24.9135 73.4187 26.0865 73.4187 26.0865C75.7562 31.9303 74.2688 36.2865 73.8438 37.349C76.551 40.324 78.2 44.0938 78.2 48.7688C78.2 65.0803 68.2678 68.6928 58.8115 69.7553C60.35 71.0813 61.6803 73.6313 61.6803 77.6178C61.6803 83.3 61.625 87.8688 61.625 89.3053C61.625 90.4188 62.424 91.7447 64.549 91.3197C72.9854 88.4714 80.3162 83.0492 85.5096 75.8164C90.703 68.5836 93.4976 59.9042 93.5 51C93.5 27.5187 74.4813 8.5 51 8.5Z" fill="white"/>
</svg>
